{
  "asset": {
    "version": "2.0",
    "generator": "THREE.GLTFExporter"
  },
  "scenes": [
    {
      "nodes": [
        0
      ]
    }
  ],
  "scene": 0,
  "nodes": [
    {
      "children": [
        8
      ],
      "matrix": [
        0.01,
        0,
        0,
        0,
        0,
        0.01,
        0,
        0,
        0,
        0,
        0.01,
        0,
        0,
        0,
        0,
        1
      ]
    },
    {
      "matrix": [
        -0.012262726126853252,
        0,
        -0.9999248099471969,
        0,
        0,
        1,
        0,
        0,
        2.0393206803791815,
        0,
        -0.025009511454805032,
        0,
        -21.610238601701436,
        147.97682752801572,
        -97.33665991598991,
        1
      ],
      "name": "Shape 3",
      "mesh": 0
    },
    {
      "matrix": [
        1.6653345369377343e-16,
        0,
        1,
        0,
        0,
        1,
        0,
        0,
        -2.039474028539078,
        0,
        5.6606775615227715e-16,
        0,
        7.177043556883909,
        145.49568921930677,
        101.28037165076742,
        1
      ],
      "name": "Shape 2",
      "mesh": 1
    },
    {
      "matrix": [
        1,
        0,
        0,
        0,
        0,
        1,
        0,
        0,
        0,
        0,
        1,
        0,
        0,
        -24.771864030822158,
        0,
        1
      ],
      "name": "Sphere",
      "mesh": 2
    },
    {
      "matrix": [
        1,
        0,
        0,
        0,
        0,
        1,
        0,
        0,
        0,
        0,
        1,
        0,
        0,
        24.771864030822158,
        0,
        1
      ],
      "name": "Group",
      "children": [
        1,
        2,
        3
      ]
    },
    {
      "matrix": [
        0.5883484054145521,
        0.39223227027636803,
        -0.7071067811865475,
        0,
        -0.554700196225229,
        0.8320502943378437,
        0,
        0,
        0.588348405414552,
        0.392232270276368,
        0.7071067811865476,
        0,
        0,
        0,
        0,
        1
      ],
      "name": "Directional Light",
      "extensions": {
        "KHR_lights_punctual": {
          "light": 0
        }
      }
    },
    {
      "matrix": [
        -0.022358422719232385,
        -1.3877787807814457e-17,
        -0.9997500192215591,
        0,
        -0.18392435002104351,
        0.9829317953666018,
        0.004113286608718958,
        0,
        0.9826860813112419,
        0.18397033906961413,
        -0.021976804584980414,
        0,
        1024.9047594145081,
        205.75894690237618,
        53.89466408595641,
        1
      ],
      "camera": 0
    },
    {
      "matrix": [
        1,
        0,
        0,
        0,
        0,
        1,
        0,
        0,
        0,
        0,
        1,
        0,
        0,
        1,
        0,
        1
      ],
      "name": "Default Ambient Light"
    },
    {
      "name": "Scene 1",
      "children": [
        4,
        5,
        6,
        7
      ]
    }
  ],
  "bufferViews": [
    {
      "buffer": 0,
      "byteOffset": 0,
      "byteLength": 11568,
      "target": 34962,
      "byteStride": 12
    },
    {
      "buffer": 0,
      "byteOffset": 11568,
      "byteLength": 11568,
      "target": 34962,
      "byteStride": 12
    },
    {
      "buffer": 0,
      "byteOffset": 23136,
      "byteLength": 7712,
      "target": 34962,
      "byteStride": 8
    },
    {
      "buffer": 0,
      "byteOffset": 30848,
      "byteLength": 17688,
      "target": 34963
    },
    {
      "buffer": 0,
      "byteOffset": 48536,
      "byteLength": 11568,
      "target": 34962,
      "byteStride": 12
    },
    {
      "buffer": 0,
      "byteOffset": 60104,
      "byteLength": 11568,
      "target": 34962,
      "byteStride": 12
    },
    {
      "buffer": 0,
      "byteOffset": 71672,
      "byteLength": 7712,
      "target": 34962,
      "byteStride": 8
    },
    {
      "buffer": 0,
      "byteOffset": 79384,
      "byteLength": 17688,
      "target": 34963
    },
    {
      "buffer": 0,
      "byteOffset": 97072,
      "byteLength": 50700,
      "target": 34962,
      "byteStride": 12
    },
    {
      "buffer": 0,
      "byteOffset": 147772,
      "byteLength": 50700,
      "target": 34962,
      "byteStride": 12
    },
    {
      "buffer": 0,
      "byteOffset": 198472,
      "byteLength": 33800,
      "target": 34962,
      "byteStride": 8
    },
    {
      "buffer": 0,
      "byteOffset": 232272,
      "byteLength": 48384,
      "target": 34963
    }
  ],
  "buffers": [
    {
      "byteLength": 280656,
      "uri": "data:application/octet-stream;base64,"
    }
  ],
  "accessors": [
    {
      "bufferView": 0,
      "componentType": 5126,
      "count": 964,
      "max": [
        44.68578338623047,
        84.54225158691406,
        22
      ],
      "min": [
        0.05457144230604172,
        -37.54373550415039,
        0
      ],
      "type": "VEC3"
    },
    {
      "bufferView": 1,
      "componentType": 5126,
      "count": 964,
      "max": [
        0.9999998807907104,
        0.9917107820510864,
        1
      ],
      "min": [
        -0.9821738600730896,
        -0.7599457502365112,
        -1
      ],
      "type": "VEC3"
    },
    {
      "bufferView": 2,
      "componentType": 5126,
      "count": 964,
      "max": [
        1,
        1
      ],
      "min": [
        0,
        0
      ],
      "type": "VEC2"
    },
    {
      "bufferView": 3,
      "componentType": 5125,
      "count": 4422,
      "max": [
        963
      ],
      "min": [
        0
      ],
      "type": "SCALAR"
    },
    {
      "bufferView": 4,
      "componentType": 5126,
      "count": 964,
      "max": [
        44.68578338623047,
        84.54225158691406,
        22
      ],
      "min": [
        0.05457144230604172,
        -37.54373550415039,
        0
      ],
      "type": "VEC3"
    },
    {
      "bufferView": 5,
      "componentType": 5126,
      "count": 964,
      "max": [
        0.9999998807907104,
        0.9917107820510864,
        1
      ],
      "min": [
        -0.9821738600730896,
        -0.7599457502365112,
        -1
      ],
      "type": "VEC3"
    },
    {
      "bufferView": 6,
      "componentType": 5126,
      "count": 964,
      "max": [
        1,
        1
      ],
      "min": [
        0,
        0
      ],
      "type": "VEC2"
    },
    {
      "bufferView": 7,
      "componentType": 5125,
      "count": 4422,
      "max": [
        963
      ],
      "min": [
        0
      ],
      "type": "SCALAR"
    },
    {
      "bufferView": 8,
      "componentType": 5126,
      "count": 4225,
      "max": [
        207.74720764160156,
        207.74720764160156,
        207.74720764160156
      ],
      "min": [
        -207.74720764160156,
        -207.74720764160156,
        -207.74720764160156
      ],
      "type": "VEC3"
    },
    {
      "bufferView": 9,
      "componentType": 5126,
      "count": 4225,
      "max": [
        1,
        1,
        1
      ],
      "min": [
        -1,
        -1,
        -1
      ],
      "type": "VEC3"
    },
    {
      "bufferView": 10,
      "componentType": 5126,
      "count": 4225,
      "max": [
        1.0078125,
        1
      ],
      "min": [
        -0.0078125,
        0
      ],
      "type": "VEC2"
    },
    {
      "bufferView": 11,
      "componentType": 5123,
      "count": 24192,
      "max": [
        4224
      ],
      "min": [
        0
      ],
      "type": "SCALAR"
    }
  ],
  "meshes": [
    {
      "primitives": [
        {
          "mode": 4,
          "attributes": {
            "POSITION": 0,
            "NORMAL": 1,
            "TEXCOORD_0": 2
          },
          "extras": {
            "parameters": {
              "width": 44.63121025327385,
              "subdivisions": 40,
              "roundness": 0,
              "extrudeBevelSize": 22,
              "extrudeBevelSegments": 5,
              "windingRule": 0,
              "height": 122.08598676708425,
              "depth": 22,
              "shape": {
                "points": [
                  {
                    "fi": 0.3753618376280398,
                    "id": "703793c7-2efc-4d2d-b6eb-bb31d9da6b70",
                    "data": {
                      "position": [
                        0.054571441048210545,
                        0.3158249549778702
                      ],
                      "controlPrevious": {
                        "position": [
                          0.054571441048210545,
                          0.3158249549778702
                        ]
                      },
                      "controlNext": {
                        "position": [
                          0.054571441048210545,
                          0.3158249549778702
                        ]
                      },
                      "areControlsDirectionsMirrored": true,
                      "roundness": 0
                    }
                  },
                  {
                    "fi": 0.9437829808079157,
                    "id": "d6609998-74f2-4e5d-902a-abed06341bb3",
                    "data": {
                      "position": [
                        44.31889192312339,
                        -37.543734140112065
                      ],
                      "controlPrevious": {
                        "position": [
                          44.31889192312339,
                          -37.543734140112065
                        ]
                      },
                      "controlNext": {
                        "position": [
                          44.31889192312339,
                          -37.543734140112065
                        ]
                      },
                      "areControlsDirectionsMirrored": true,
                      "roundness": 0
                    }
                  },
                  {
                    "fi": 1.4948706757240142,
                    "id": "3ef7d499-78fe-4674-9c12-a1a3aa5c3882",
                    "data": {
                      "position": [
                        32.02324459444391,
                        84.54225262697219
                      ],
                      "controlPrevious": {
                        "position": [
                          48.00758229771783,
                          84.54225262697219
                        ]
                      },
                      "controlNext": {
                        "position": [
                          16.038906954640893,
                          84.54225262697219
                        ]
                      },
                      "areControlsDirectionsMirrored": true,
                      "roundness": 0
                    }
                  }
                ],
                "isClosed": true,
                "roundness": 0,
                "shapeHoles": []
              },
              "type": "VectorGeometry"
            },
            "shape": {
              "points": [
                0.054571441048210545,
                0.3158249549778702,
                0.054571441048210545,
                0.3158249549778702,
                0.054571441048210545,
                0.3158249549778702,
                0,
                44.31889192312339,
                -37.543734140112065,
                44.31889192312339,
                -37.543734140112065,
                44.31889192312339,
                -37.543734140112065,
                0,
                32.02324459444391,
                84.54225262697219,
                48.00758229771783,
                84.54225262697219,
                16.038906954640893,
                84.54225262697219,
                0
              ],
              "shapeHoles": [],
              "isClosed": true,
              "roundness": 0
            },
            "type": "VectorGeometry"
          },
          "indices": 3
        }
      ]
    },
    {
      "primitives": [
        {
          "mode": 4,
          "attributes": {
            "POSITION": 4,
            "NORMAL": 5,
            "TEXCOORD_0": 6
          },
          "extras": {
            "parameters": {
              "width": 44.63121025327385,
              "subdivisions": 40,
              "roundness": 0,
              "extrudeBevelSize": 22,
              "extrudeBevelSegments": 5,
              "windingRule": 0,
              "height": 122.08598676708425,
              "depth": 22,
              "shape": {
                "points": [
                  {
                    "fi": 0.3753618376280398,
                    "id": "703793c7-2efc-4d2d-b6eb-bb31d9da6b70",
                    "data": {
                      "position": [
                        0.054571441048210545,
                        0.3158249549778702
                      ],
                      "controlPrevious": {
                        "position": [
                          0.054571441048210545,
                          0.3158249549778702
                        ]
                      },
                      "controlNext": {
                        "position": [
                          0.054571441048210545,
                          0.3158249549778702
                        ]
                      },
                      "areControlsDirectionsMirrored": true,
                      "roundness": 0
                    }
                  },
                  {
                    "fi": 0.9437829808079157,
                    "id": "d6609998-74f2-4e5d-902a-abed06341bb3",
                    "data": {
                      "position": [
                        44.31889192312339,
                        -37.543734140112065
                      ],
                      "controlPrevious": {
                        "position": [
                          44.31889192312339,
                          -37.543734140112065
                        ]
                      },
                      "controlNext": {
                        "position": [
                          44.31889192312339,
                          -37.543734140112065
                        ]
                      },
                      "areControlsDirectionsMirrored": true,
                      "roundness": 0
                    }
                  },
                  {
                    "fi": 1.4948706757240142,
                    "id": "3ef7d499-78fe-4674-9c12-a1a3aa5c3882",
                    "data": {
                      "position": [
                        32.02324459444391,
                        84.54225262697219
                      ],
                      "controlPrevious": {
                        "position": [
                          48.00758229771783,
                          84.54225262697219
                        ]
                      },
                      "controlNext": {
                        "position": [
                          16.038906954640893,
                          84.54225262697219
                        ]
                      },
                      "areControlsDirectionsMirrored": true,
                      "roundness": 0
                    }
                  }
                ],
                "isClosed": true,
                "roundness": 0,
                "shapeHoles": []
              },
              "type": "VectorGeometry"
            },
            "shape": {
              "points": [
                0.054571441048210545,
                0.3158249549778702,
                0.054571441048210545,
                0.3158249549778702,
                0.054571441048210545,
                0.3158249549778702,
                0,
                44.31889192312339,
                -37.543734140112065,
                44.31889192312339,
                -37.543734140112065,
                44.31889192312339,
                -37.543734140112065,
                0,
                32.02324459444391,
                84.54225262697219,
                48.00758229771783,
                84.54225262697219,
                16.038906954640893,
                84.54225262697219,
                0
              ],
              "shapeHoles": [],
              "isClosed": true,
              "roundness": 0
            },
            "type": "VectorGeometry"
          },
          "indices": 7
        }
      ]
    },
    {
      "primitives": [
        {
          "mode": 4,
          "attributes": {
            "POSITION": 8,
            "NORMAL": 9,
            "TEXCOORD_0": 10
          },
          "extras": {
            "parameters": {
              "width": 415.4944301682153,
              "widthSegments": 64,
              "heightSegments": 64,
              "phiStart": 0,
              "phiLength": 6.283185307179586,
              "thetaStart": 0,
              "thetaLength": 180,
              "depth": 415.4944301682153,
              "height": 415.4944301682153,
              "type": "SphereGeometry"
            },
            "type": "SphereGeometry"
          },
          "indices": 11
        }
      ]
    }
  ],
  "extensions": {
    "KHR_lights_punctual": {
      "lights": [
        {
          "name": "Directional Light",
          "color": [
            1,
            1,
            1
          ],
          "intensity": 0.7,
          "type": "directional"
        }
      ]
    }
  },
  "cameras": [
    {
      "type": "orthographic",
      "orthographic": {
        "xmag": 9.42902525302906,
        "ymag": 4.315497885989212,
        "zfar": 100000,
        "znear": 0
      }
    }
  ],
  "extensionsUsed": [
    "KHR_lights_punctual"
  ]
}